<svg width="108" height="21" viewBox="0 0 108 21" fill="none" xmlns="http://www.w3.org/2000/svg">
<path d="M0 1.89701C0 0.84932 0.800451 0 1.78786 0H18.2361C19.2235 0 20.024 0.84932 20.024 1.89701V7.58804C20.024 8.63573 19.2235 9.48505 18.2361 9.48505H1.78786C0.800451 9.48505 0 8.63573 0 7.58804V1.89701Z" fill="#3641FF"/>
<path d="M0 12.4351C0 11.3874 0.800451 10.5381 1.78786 10.5381H18.2361C19.2235 10.5381 20.024 11.3874 20.024 12.4351V18.1261C20.024 19.1738 19.2235 20.0231 18.2361 20.0231H1.78786C0.800451 20.0231 0 19.1738 0 18.1261V12.4351Z" fill="#3641FF"/>
<path d="M91.689 20.024V0H99.731C101.189 0 102.447 0.270507 103.505 0.81152C104.57 1.34601 105.39 2.11516 105.967 3.11897C106.544 4.11626 106.832 5.29932 106.832 6.66815C106.832 8.05653 106.537 9.23633 105.948 10.2075C105.359 11.1722 104.522 11.9088 103.438 12.4172C102.355 12.9191 101.071 13.1701 99.5884 13.1701H94.5027V9.35691H98.7139C99.4237 9.35691 100.016 9.2624 100.491 9.07337C100.973 8.87783 101.338 8.58451 101.585 8.19341C101.832 7.7958 101.955 7.28738 101.955 6.66815C101.955 6.04891 101.832 5.53723 101.585 5.1331C101.338 4.72246 100.973 4.4161 100.491 4.21403C100.01 4.00545 99.4173 3.90116 98.7139 3.90116H96.3944V20.024H91.689ZM102.649 10.8724L107.497 20.024H102.364L97.6112 10.8724H102.649Z" fill="#222327"/>
<path d="M88.5271 0V20.024H84.3115V0H88.5271Z" fill="#222327"/>
<path d="M68.1786 20.024H63.2339L69.6564 0H75.7815L82.204 20.024H77.2593L72.7886 5.04511H72.6399L68.1786 20.024ZM67.5187 12.1435H77.8542V15.8197H67.5187V12.1435Z" fill="#222327"/>
<path d="M47.4253 20.024V0H52.46V16.0935H61.1259V20.024H47.4253Z" fill="#222327"/>
<path d="M45.3171 7.32817H40.5547C40.4912 6.83963 40.361 6.39867 40.1642 6.00529C39.9673 5.61192 39.707 5.27565 39.3831 4.99648C39.0593 4.71731 38.6751 4.50477 38.2306 4.35884C37.7925 4.20656 37.3067 4.13042 36.7733 4.13042C35.8272 4.13042 35.0112 4.36201 34.3254 4.82517C33.646 5.28834 33.1221 5.95771 32.7538 6.83328C32.3919 7.70886 32.2109 8.76843 32.2109 10.012C32.2109 11.3063 32.3951 12.3913 32.7634 13.2668C33.138 14.1361 33.6619 14.7928 34.335 15.2369C35.0144 15.6747 35.8177 15.8936 36.7447 15.8936C37.2654 15.8936 37.7385 15.827 38.1639 15.6937C38.5957 15.5605 38.9735 15.367 39.2974 15.1132C39.6276 14.853 39.8975 14.539 40.107 14.171C40.3229 13.7966 40.4721 13.3747 40.5547 12.9052L45.3171 12.9338C45.2345 13.7966 44.9837 14.6468 44.5646 15.4843C44.1519 16.3218 43.5836 17.0864 42.8597 17.778C42.1358 18.4632 41.2532 19.0088 40.2118 19.4149C39.1767 19.821 37.9893 20.024 36.6495 20.024C34.8842 20.024 33.3031 19.637 31.9061 18.8629C30.5155 18.0825 29.417 16.9468 28.6105 15.4558C27.8041 13.9648 27.4009 12.1502 27.4009 10.012C27.4009 7.86748 27.8104 6.04971 28.6296 4.55869C29.4487 3.06768 30.5568 1.93515 31.9537 1.16109C33.3507 0.387029 34.916 0 36.6495 0C37.8306 0 38.9227 0.164963 39.926 0.49489C40.9293 0.818471 41.8119 1.29433 42.5739 1.92246C43.3359 2.54424 43.955 3.30878 44.4313 4.21608C44.9075 5.12338 45.2028 6.16074 45.3171 7.32817Z" fill="#222327"/>
</svg>
